<?xml version="1.0" standalone="no"?>
<!DOCTYPE svg PUBLIC "-//W3C//DTD SVG 20010904//EN"
 "http://www.w3.org/TR/2001/REC-SVG-20010904/DTD/svg10.dtd">
<svg version="1.0" xmlns="http://www.w3.org/2000/svg"
 width="700.000000pt" height="700.000000pt" viewBox="0 0 700.000000 700.000000"
 preserveAspectRatio="xMidYMid meet">
<metadata>
Created by potrace 1.14, written by Peter Selinger 2001-2017
</metadata>
<g transform="translate(0.000000,700.000000) scale(0.100000,-0.100000)"
fill="#000000" stroke="none">
<path d="M3280 6993 c-19 -1 -87 -8 -150 -14 -507 -48 -1041 -231 -1486 -509
-1421 -891 -2009 -2649 -1412 -4228 61 -161 206 -454 298 -600 157 -251 395
-535 609 -729 558 -504 1225 -804 1986 -893 155 -18 460 -24 620 -11 496 39
907 152 1330 366 217 109 341 186 528 326 1022 766 1543 2030 1361 3299 -84
588 -315 1141 -673 1615 -666 880 -1709 1393 -2811 1383 -91 -1 -181 -3 -200
-5z m-334 -2021 c6 -4 341 -477 743 -1052 403 -575 742 -1053 753 -1062 26
-23 43 -23 68 2 20 20 20 33 20 1054 0 927 2 1036 16 1050 22 23 176 23 198 0
14 -14 16 -157 16 -1429 0 -1556 5 -1445 -60 -1445 -26 0 -101 104 -1010 1406
-540 773 -984 1412 -987 1420 -3 8 2 25 11 39 16 24 21 25 119 25 56 0 107 -4
113 -8z m-579 -142 c23 -30 42 -58 43 -62 0 -5 -38 -8 -85 -8 l-85 0 0 47 c0
99 59 110 127 23z m299 -427 c21 -32 47 -70 57 -85 l19 -28 -251 0 -251 0 0
85 0 85 194 0 193 0 39 -57z m331 -475 c27 -40 53 -79 57 -85 6 -10 -78 -13
-403 -13 l-411 0 0 85 0 85 354 0 354 0 49 -72z m319 -455 c21 -32 47 -70 57
-85 l19 -28 -576 0 -576 0 0 85 0 85 519 0 518 0 39 -57z m347 -498 l58 -85
-740 0 -741 0 0 85 0 85 683 0 682 -1 58 -84z m312 -447 c28 -40 54 -78 58
-85 7 -11 -154 -13 -893 -13 l-900 0 0 85 0 85 843 0 842 0 50 -72z m1475
-118 c106 -54 149 -180 99 -290 -27 -60 -45 -79 -104 -106 -171 -81 -354 62
-314 245 30 143 188 218 319 151z m-1172 -319 c27 -48 27 -56 2 -81 -20 -20
-33 -20 -1010 -20 -977 0 -990 0 -1010 20 -15 15 -20 33 -20 70 l0 50 1008 0
1008 0 22 -39z"/>
</g>
</svg>
