<svg  viewBox="0 0 178 178" fill="none" xmlns="http://www.w3.org/2000/svg">
<path d="M90.3315 170.029C136.593 170.029 174.095 148.376 174.095 121.667C174.095 94.9566 136.593 73.304 90.3315 73.304C44.0703 73.304 6.56821 94.9566 6.56821 121.667C6.56821 148.376 44.0703 170.029 90.3315 170.029Z" fill="#F5F5F5"/>
<path d="M145.561 145.383C158.685 145.383 169.324 139.241 169.324 131.663C169.324 124.086 158.685 117.943 145.561 117.943C132.437 117.943 121.798 124.086 121.798 131.663C121.798 139.241 132.437 145.383 145.561 145.383Z" fill="#E5E9F1"/>
<path d="M85.4222 139.064L58.6154 123.582L89.2563 105.892L116.067 121.371L85.4222 139.064Z" fill="#E5E9F1"/>
<path d="M12.4279 134.276L47.0027 154.237L76.0024 137.498L41.4277 117.537L12.4279 134.276Z" fill="#E5E9F1"/>
<path d="M63.5531 40.4523V38.4872C63.5383 38.3736 63.4946 38.2658 63.426 38.1741C63.3574 38.0825 63.2663 38.01 63.1615 37.9638L51.296 31.1571C51.0133 31.015 50.7012 30.9409 50.3847 30.9409C50.0682 30.9409 49.7561 31.015 49.4733 31.1571L15.3721 50.7371C15.2673 50.7833 15.1762 50.8557 15.1076 50.9474C15.039 51.0391 14.9952 51.1469 14.9805 51.2604V53.2256C14.9949 53.3392 15.0386 53.4472 15.1072 53.5389C15.1758 53.6306 15.2671 53.703 15.3721 53.7489L27.234 60.5449C27.5168 60.6871 27.8289 60.7611 28.1453 60.7611C28.4618 60.7611 28.7739 60.6871 29.0567 60.5449L63.158 40.9649C63.2629 40.919 63.3542 40.8467 63.4228 40.7549C63.4915 40.6632 63.5351 40.5553 63.5495 40.4416L63.5531 40.4523Z" fill="#F0F0F0"/>
<path d="M15.372 51.7731L27.2339 58.5798C27.5162 58.7236 27.8285 58.7985 28.1453 58.7985C28.4621 58.7985 28.7743 58.7236 29.0566 58.5798L63.1579 38.9998C63.6598 38.7114 63.6598 38.2451 63.1579 37.9532L51.2959 31.1571C51.0132 31.015 50.7011 30.9409 50.3846 30.9409C50.0681 30.9409 49.756 31.015 49.4732 31.1571L15.372 50.7371C14.87 51.0184 14.87 51.4847 15.372 51.7731Z" fill="#FAFAFA"/>
<path d="M28.1453 58.8005V60.7621C27.8282 60.7667 27.515 60.6921 27.234 60.5449L15.3721 53.756C15.2671 53.7101 15.1758 53.6378 15.1072 53.546C15.0386 53.4543 14.9949 53.3463 14.9805 53.2327V53.2327V51.264C14.9874 51.1844 15.0131 51.1076 15.0552 51.0397C14.9164 51.2925 15.0196 51.5844 15.3721 51.7873L27.234 58.5834C27.5142 58.7325 27.828 58.8073 28.1453 58.8005V58.8005Z" fill="#E5E9F1"/>
<path d="M34.5178 42.1967L44.5676 47.9247L61.1679 38.3981L51.1216 32.6665L34.5178 42.1967Z" fill="#E5E9F1"/>
<path d="M44.6815 47.4904L34.9877 41.9261C35.2396 41.1042 35.2209 40.2232 34.9343 39.4128L44.5676 44.9165C44.5676 44.9165 44.7527 45.5253 44.6815 47.4904Z" fill="white"/>
<path d="M44.0728 44.144C44.3434 44.3188 44.5688 44.555 44.7309 44.8334C44.893 45.1117 44.9871 45.4244 45.0055 45.746V47.6186C45.0055 48.2095 44.5855 48.448 44.0728 48.1561L34.532 42.6595V42.1967L43.9589 47.5723C44.2686 47.7503 44.5178 47.6043 44.5178 47.2519V45.5146C44.5071 45.3216 44.4509 45.134 44.3537 44.9669C44.2566 44.7998 44.1213 44.6582 43.9589 44.5534L34.532 39.16V38.6331L44.0728 44.144Z" fill="#EBEBEB"/>
<path d="M34.5319 38.6509L51.1215 29.1208L60.673 34.6032C60.9442 34.7781 61.1701 35.0148 61.3323 35.2939C61.4944 35.573 61.5881 35.8865 61.6057 36.2087V38.092C61.6184 38.2071 61.5995 38.3236 61.5513 38.4289C61.503 38.5342 61.4271 38.6245 61.3316 38.6901L44.7313 48.2202C44.8251 48.1531 44.8994 48.0625 44.9469 47.9575C44.9944 47.8525 45.0134 47.7368 45.0019 47.6221V45.746C44.9846 45.4241 44.8909 45.111 44.7288 44.8325C44.5666 44.5539 44.3405 44.3179 44.0692 44.144L34.5319 38.6509Z" fill="#FAFAFA"/>
<path d="M44.7314 44.824C44.9006 45.0987 44.9951 45.4128 45.0055 45.7353V47.6114C45.017 47.7261 44.9981 47.8418 44.9505 47.9468C44.903 48.0518 44.8287 48.1424 44.7349 48.2095L61.3352 38.6794C61.4307 38.6138 61.5066 38.5235 61.5549 38.4182C61.6032 38.3129 61.622 38.1965 61.6093 38.0813V36.2088C61.599 35.8863 61.5045 35.5721 61.3352 35.2974L44.7314 44.824Z" fill="#F0F0F0"/>
<path d="M24.3006 27.9389L24.2044 29.2062L35.4256 35.2262L35.6783 34.4857L24.3006 27.9389Z" fill="#EBEBEB"/>
<path d="M35.5288 34.7812L24.6601 28.5085L22.7697 29.5978L33.852 36.0806L35.5288 34.7812Z" fill="white"/>
<path d="M31.8121 35.4077L30.7441 48.003C30.7494 48.1452 30.7887 48.2841 30.8587 48.408C30.9287 48.5319 31.0273 48.6371 31.1464 48.715L37.4512 52.364C37.5518 52.4196 37.6639 52.4513 37.7787 52.4566L33.8627 36.5042C33.7485 36.498 33.6369 36.4676 33.5352 36.4152L33.0831 36.1518L31.8121 35.4077Z" fill="#E5E9F1"/>
<path d="M34.3326 36.401L35.4576 35.4362L36.2799 34.7242C36.3654 34.5889 36.465 34.4893 36.4116 34.3682L40.2778 50.2031C40.3312 50.3135 40.3455 50.5591 40.1924 50.6517L38.245 52.3178C38.0977 52.3958 37.9303 52.4281 37.7645 52.4103L33.8484 36.4579C34.0119 36.4862 34.1801 36.4664 34.3326 36.401V36.401Z" fill="#F0F0F0"/>
<path d="M36.2835 34.265C36.5042 34.3932 36.4508 34.5356 36.2835 34.7278L34.3326 36.3974C34.2084 36.4623 34.0704 36.4962 33.9303 36.4962C33.7902 36.4962 33.6522 36.4623 33.5281 36.3974L31.8121 35.4078C31.5879 35.2796 31.5487 35.0945 31.7231 34.9948C31.8378 34.9483 31.9615 34.9286 32.0849 34.9373C32.2083 34.9459 32.3281 34.9826 32.4351 35.0446L33.7879 35.8278C33.8293 35.8488 33.8751 35.8597 33.9214 35.8597C33.9678 35.8597 34.0136 35.8488 34.0549 35.8278L35.4789 34.589C35.5537 34.5462 35.5537 34.4786 35.4789 34.4359L24.3005 27.9389L24.8345 27.6292L36.2835 34.265Z" fill="#FAFAFA"/>
<path d="M21.0609 28.5476L31.7516 34.7207V55.0625L21.0609 48.8859V28.5476Z" fill="#EBEBEB"/>
<path d="M31.4063 35.0589L21.0609 29.1208C20.4282 29.7916 19.5996 30.2452 18.6935 30.4166L28.9535 36.3298C28.9535 36.3298 29.6156 36.1732 31.4063 35.0589Z" fill="white"/>
<path d="M27.9602 36.312C28.2686 36.4664 28.6086 36.5468 28.9535 36.5468C29.2983 36.5468 29.6384 36.4664 29.9467 36.312L31.684 35.2938C32.2322 34.977 32.2322 34.4679 31.684 34.1511L21.4917 28.2984L21.061 28.5476L31.0895 34.3398C31.1634 34.3613 31.2284 34.4063 31.2746 34.4679C31.3208 34.5295 31.3458 34.6045 31.3458 34.6815C31.3458 34.7585 31.3208 34.8335 31.2746 34.8951C31.2284 34.9567 31.1634 35.0017 31.0895 35.0233L29.4697 35.956C29.2847 36.049 29.0805 36.0974 28.8734 36.0974C28.6663 36.0974 28.4621 36.049 28.2771 35.956L18.2521 30.1603L17.7608 30.4416L27.9602 36.312Z" fill="#FAFAFA"/>
<path d="M17.7644 30.4416V50.7798L27.9602 56.6325C28.2686 56.7869 28.6086 56.8673 28.9535 56.8673C29.2983 56.8673 29.6384 56.7869 29.9467 56.6325L31.6911 55.6321C31.8045 55.5821 31.9023 55.5025 31.9744 55.4017C32.0464 55.3008 32.09 55.1824 32.1005 55.059V34.7207C32.0895 34.8445 32.0448 34.963 31.9714 35.0634C31.8981 35.1638 31.7987 35.2422 31.684 35.2903L29.9467 36.312C29.6384 36.4664 29.2983 36.5468 28.9535 36.5468C28.6086 36.5468 28.2686 36.4664 27.9602 36.312L17.7644 30.4416Z" fill="#EBEBEB"/>
<path d="M28.9535 36.5292C29.2991 36.536 29.6408 36.4551 29.9467 36.2942L31.684 35.2903C31.7973 35.2412 31.8952 35.1623 31.9673 35.062C32.0394 34.9617 32.083 34.8437 32.0934 34.7207V55.059C32.0829 55.1824 32.0393 55.3008 31.9672 55.4016C31.8952 55.5025 31.7974 55.5821 31.684 55.6321L29.9396 56.6325C29.6337 56.7934 29.292 56.8742 28.9464 56.8674L28.9535 36.5292Z" fill="#F0F0F0"/>
<path d="M114.835 110.36C114.782 109.459 114.66 108.381 114.515 107.128C113.97 102.371 113.226 95.8566 115.198 89.6159C116.398 85.8174 119.288 81.314 123.803 80.0644C124.806 79.7867 127.234 79.3773 128.167 81.5311C128.298 81.8423 128.376 82.1732 128.399 82.5101C128.495 83.8772 127.879 85.084 127.195 86.184C126.408 87.4621 125.497 88.676 124.614 89.858C123.781 90.9758 122.916 92.1292 122.161 93.3254C121.346 94.6251 120.632 95.9854 120.025 97.3945L119.737 97.2699C120.343 95.8466 121.057 94.4719 121.873 93.1581C122.631 91.9512 123.5 90.7907 124.34 89.6693C125.216 88.4945 126.12 87.2841 126.903 86.0203C127.558 84.9523 128.149 83.8095 128.06 82.5315C128.041 82.2301 127.971 81.934 127.854 81.6557C127.021 79.7298 124.785 80.1142 123.863 80.367C119.47 81.5845 116.647 85.9918 115.472 89.7084C113.521 95.8886 114.262 102.364 114.803 107.092C114.945 108.349 115.07 109.434 115.123 110.342L114.835 110.36Z" fill="#CFD5E2"/>
<path d="M115.155 115.536C115.132 115.54 115.108 115.54 115.084 115.536C115.016 115.523 114.952 115.494 114.896 115.451C114.841 115.408 114.797 115.353 114.767 115.291C114.705 115.114 114.705 114.922 114.767 114.746C114.817 114.405 114.817 114.058 114.767 113.717C114.767 113.525 114.735 113.322 114.735 113.14V110.93C115.02 106.958 116.183 103.1 118.142 99.6337C119.879 96.6113 121.802 94.5999 124.194 93.2969C125.484 92.5883 126.898 92.135 128.359 91.9619C129.649 91.8194 130.946 92.162 131.998 92.9231C133.083 93.7811 133.571 95.2513 133.162 96.4155C132.873 97.2307 132.215 97.8395 131.542 98.3913C130.342 99.3703 129.032 100.246 127.768 101.093C126.718 101.805 125.632 102.517 124.618 103.301C121.514 105.696 118.91 108.678 116.953 112.076C116.633 112.628 116.33 113.197 116.052 113.767L115.939 113.991C115.827 114.195 115.73 114.405 115.647 114.621C115.629 114.668 115.611 114.764 115.586 114.874C115.568 115.077 115.503 115.273 115.397 115.447C115.331 115.506 115.244 115.538 115.155 115.536ZM128.872 92.2574C128.712 92.2574 128.552 92.2574 128.388 92.2787C126.97 92.4442 125.597 92.8843 124.347 93.5746C122.012 94.8455 120.129 96.8213 118.42 99.7903C116.487 103.214 115.338 107.023 115.056 110.944V113.133C115.056 113.304 115.056 113.489 115.088 113.685C115.145 114.058 115.145 114.437 115.088 114.81C115.049 114.926 115.049 115.05 115.088 115.166C115.097 115.184 115.11 115.2 115.126 115.212C115.142 115.224 115.16 115.233 115.18 115.237C115.244 115.106 115.287 114.965 115.308 114.821C115.325 114.722 115.349 114.624 115.38 114.529C115.466 114.3 115.569 114.078 115.686 113.863L115.796 113.642C116.081 113.066 116.387 112.492 116.707 111.934C117.373 110.782 118.111 109.673 118.918 108.616C120.513 106.532 122.374 104.666 124.454 103.066C125.479 102.282 126.569 101.553 127.622 100.848C128.883 100.004 130.182 99.1317 131.375 98.1634C132.008 97.6472 132.631 97.0669 132.895 96.3265C133.251 95.2834 132.813 93.9626 131.827 93.183C130.975 92.5482 129.933 92.2218 128.872 92.2574Z" fill="#CFD5E2"/>
<path d="M114.888 112.496H114.849C114.829 112.491 114.81 112.483 114.794 112.471C114.777 112.459 114.763 112.443 114.752 112.426C114.741 112.408 114.735 112.389 114.732 112.368C114.729 112.348 114.73 112.327 114.735 112.307C117.672 100.595 125.793 95.3688 130.129 94.1264C130.168 94.1154 130.211 94.1204 130.247 94.1404C130.283 94.1604 130.309 94.1937 130.321 94.2332C130.332 94.2733 130.327 94.3162 130.307 94.3527C130.287 94.3893 130.254 94.4166 130.214 94.429C125.942 95.6501 117.943 100.809 115.041 112.382C115.031 112.415 115.011 112.444 114.984 112.464C114.956 112.485 114.923 112.496 114.888 112.496V112.496Z" fill="#CFD5E2"/>
<path d="M114.871 102.884C114.829 102.88 114.79 102.86 114.763 102.828C114.735 102.796 114.722 102.755 114.725 102.713C115.661 90.0644 123.934 83.1331 124.874 82.3891C124.89 82.3757 124.908 82.3657 124.928 82.3597C124.948 82.3537 124.969 82.3518 124.99 82.3541C125.01 82.3564 125.03 82.363 125.048 82.3733C125.067 82.3836 125.082 82.3974 125.095 82.414C125.108 82.4301 125.117 82.4486 125.123 82.4684C125.129 82.4883 125.131 82.509 125.128 82.5295C125.126 82.5501 125.12 82.5699 125.11 82.588C125.1 82.606 125.086 82.6219 125.07 82.6347C124.141 83.3716 115.963 90.2211 115.041 102.738C115.037 102.78 115.017 102.818 114.985 102.845C114.953 102.872 114.912 102.886 114.871 102.884V102.884Z" fill="#CFD5E2"/>
<path d="M113.884 58.772L94.0873 47.348C93.9342 47.2381 93.7547 47.1706 93.5672 47.1525C93.3796 47.1344 93.1906 47.1662 93.0193 47.2447L91.5953 48.0671C91.4387 48.1761 91.3142 48.3251 91.2347 48.4985C91.1551 48.6719 91.1235 48.8635 91.1431 49.0532V103.24C91.1722 103.768 91.3253 104.282 91.59 104.739C91.8548 105.197 92.2237 105.586 92.6668 105.874L112.46 117.284C112.613 117.395 112.792 117.463 112.98 117.481C113.168 117.5 113.357 117.469 113.528 117.391L114.952 116.565C115.107 116.456 115.23 116.307 115.308 116.134C115.386 115.961 115.417 115.771 115.397 115.583V61.4064C115.37 60.8794 115.218 60.3662 114.956 59.9085C114.693 59.4508 114.326 59.0615 113.884 58.772V58.772Z" fill="white"/>
<path d="M95.408 104.169L93.984 104.992V109.498C93.9912 109.63 94.0295 109.759 94.0956 109.873C94.1618 109.988 94.2541 110.085 94.3649 110.157L95.0306 110.542C95.1487 110.601 95.2792 110.632 95.4116 110.632C95.5439 110.632 95.6744 110.601 95.7925 110.542L96.4582 110.157C96.6947 110.004 96.8777 109.782 96.9815 109.52L98.2667 105.817L95.408 104.169Z" fill="white"/>
<path d="M93.984 109.498C93.9912 109.63 94.0295 109.759 94.0957 109.873C94.1618 109.988 94.2541 110.085 94.3649 110.157L95.0307 110.542C95.0766 110.569 95.1284 110.586 95.1819 110.591C95.2354 110.596 95.2894 110.589 95.3397 110.57C95.3901 110.552 95.4355 110.522 95.4726 110.483C95.5097 110.444 95.5375 110.397 95.554 110.346L96.832 106.64L93.984 104.992V109.498Z" fill="#C9D1D6"/>
<path d="M109.691 112.389L108.267 113.215V117.719C108.273 117.851 108.311 117.98 108.376 118.095C108.442 118.21 108.534 118.308 108.644 118.381L109.313 118.765C109.431 118.825 109.561 118.856 109.693 118.856C109.824 118.856 109.954 118.825 110.072 118.765L110.741 118.381C110.977 118.228 111.16 118.005 111.264 117.743L112.546 114.037L109.691 112.389Z" fill="white"/>
<path d="M108.267 117.719C108.273 117.851 108.311 117.98 108.376 118.095C108.442 118.21 108.534 118.308 108.644 118.381L109.313 118.765C109.359 118.793 109.411 118.81 109.465 118.815C109.518 118.82 109.572 118.813 109.622 118.794C109.673 118.775 109.718 118.745 109.755 118.706C109.792 118.667 109.82 118.621 109.837 118.569L111.122 114.863L108.274 113.215L108.267 117.719Z" fill="#C9D1D6"/>
<path d="M92.7593 48.2131L112.553 59.6051C112.996 59.8943 113.365 60.2839 113.63 60.7421C113.894 61.2004 114.048 61.7146 114.077 62.243V116.43C114.114 116.62 114.091 116.817 114.011 116.994C113.931 117.171 113.798 117.318 113.63 117.415C113.462 117.512 113.267 117.554 113.074 117.535C112.881 117.516 112.699 117.437 112.553 117.309L92.7593 105.896C92.3167 105.607 91.9483 105.218 91.6842 104.76C91.4201 104.303 91.2676 103.789 91.2392 103.261V49.0888C91.2012 48.8988 91.2237 48.7017 91.3036 48.5252C91.3835 48.3487 91.5168 48.2017 91.6847 48.105C91.8526 48.0082 92.0467 47.9666 92.2394 47.986C92.4322 48.0054 92.6141 48.0848 92.7593 48.2131V48.2131Z" fill="#C9D1D6"/>
<path d="M64.0159 122.279L85.4258 134.639L115.401 117.334L113.973 116.508L92.5636 104.148L64.0159 120.631V122.279Z" fill="#F0F0F0"/>
<path d="M85.4258 134.639V132.991L115.401 115.686V117.334L85.4258 134.639Z" fill="white"/>
<path d="M85.561 132.24L85.3439 132.094C89.1424 126.344 89.1175 116.412 88.8078 113.92C88.7828 113.753 88.765 113.649 88.7615 113.61L89.0214 113.568C89.0214 113.646 89.0498 113.738 89.0641 113.849C89.3417 115.611 90.9117 125.184 92.77 128.089L92.5493 128.231C91.079 125.949 89.8223 119.79 89.1922 116.238C89.2314 120.271 88.644 127.601 85.561 132.24Z" fill="#FAFAFA"/>
<path d="M98.0638 123.461C97.7398 123.365 90.1712 121.072 89.4735 117.733L89.7334 117.679C90.3955 120.866 98.0602 123.187 98.1385 123.212L98.0638 123.461Z" fill="#FAFAFA"/>
<path d="M90.424 122.108L90.2318 121.293C90.2054 121.143 90.1292 121.007 90.0154 120.906C89.9016 120.805 89.757 120.746 89.6052 120.737C89.4798 120.719 89.3519 120.74 89.2386 120.796C89.1253 120.853 89.0321 120.943 88.9715 121.054L88.7259 120.951C88.8083 120.788 88.9391 120.655 89.1004 120.569C89.2617 120.484 89.4455 120.451 89.6266 120.474C89.7575 120.482 89.8853 120.518 90.0013 120.58C90.1173 120.641 90.2189 120.726 90.2994 120.83C90.3421 120.492 90.5145 120.185 90.78 119.972C90.8807 119.919 90.9932 119.894 91.1068 119.897C91.2203 119.901 91.3309 119.934 91.4279 119.993L91.3104 120.228C91.2511 120.19 91.183 120.168 91.1125 120.163C91.0421 120.159 90.9718 120.173 90.9082 120.203C90.6056 120.374 90.4881 121.033 90.4703 121.271L90.424 122.108Z" fill="#FAFAFA"/>
<path d="M91.168 124.824L90.9331 124.084C90.6661 123.247 90.2211 122.767 89.6942 122.735C89.4741 122.73 89.2575 122.79 89.071 122.907C88.8844 123.024 88.7361 123.193 88.644 123.393L88.4055 123.279C88.5181 123.029 88.7024 122.818 88.935 122.673C89.1676 122.528 89.438 122.455 89.712 122.464C90.0288 122.482 90.5735 122.653 90.9794 123.479C91.0684 122.827 91.3354 121.78 92.0224 121.343C92.2691 121.207 92.5464 121.138 92.8276 121.141C93.1088 121.144 93.3844 121.22 93.628 121.36L93.5177 121.599C93.3137 121.478 93.0823 121.412 92.8454 121.406C92.6086 121.401 92.3743 121.456 92.1649 121.567C91.2499 122.136 91.1894 124.02 91.1894 124.041L91.168 124.824Z" fill="#FAFAFA"/>
<path d="M87.9534 126.633L87.7184 126.512C88.2453 125.497 89.4023 124.767 90.4062 124.817C90.6192 124.82 90.8289 124.87 91.0199 124.964C91.2109 125.058 91.3783 125.194 91.5098 125.362C91.6064 124.85 91.8058 124.362 92.0958 123.929C92.3858 123.496 92.7605 123.126 93.1972 122.841C93.6659 122.53 94.2069 122.345 94.768 122.303C95.3292 122.261 95.8916 122.364 96.4012 122.603L96.298 122.841C95.8286 122.624 95.3114 122.53 94.7955 122.569C94.2796 122.607 93.7822 122.777 93.3503 123.062C92.8886 123.361 92.5032 123.764 92.2251 124.239C91.9469 124.714 91.7837 125.247 91.7483 125.796V126.469L91.4991 125.842C91.4166 125.62 91.2681 125.427 91.0734 125.291C90.8788 125.155 90.6473 125.082 90.4098 125.081C89.4877 125.034 88.4375 125.704 87.9534 126.633Z" fill="#FAFAFA"/>
<path d="M86.508 130.563L86.2766 130.435C86.597 129.851 88.3023 126.918 90.3208 126.387C90.6057 126.305 90.9046 126.285 91.1979 126.327C91.4913 126.37 91.7723 126.474 92.0224 126.633L91.8872 126.857C91.6666 126.718 91.4191 126.626 91.1609 126.589C90.9027 126.551 90.6395 126.569 90.3884 126.64C88.9074 127.031 87.3766 128.997 86.508 130.563Z" fill="#FAFAFA"/>
<path d="M112.546 99.203V100.851L85.4258 116.508L64.0159 104.148V102.5L91.136 86.8426L112.546 99.203Z" fill="white"/>
<path d="M112.546 99.203L85.4258 114.86L64.0159 102.5L91.136 86.8426L112.546 99.203Z" fill="#F0F0F0"/>
<path d="M112.546 81.0754V82.7202L85.4258 98.3806L64.0159 86.0167V84.372L91.136 68.7115L112.546 81.0754Z" fill="white"/>
<path d="M112.546 81.0754L85.4258 96.7323L64.0159 84.372L91.136 68.7115L112.546 81.0754Z" fill="#F0F0F0"/>
<path d="M85.3332 75.2335L65.5396 63.8237C65.3868 63.7132 65.2076 63.6451 65.02 63.6264C64.8324 63.6076 64.6432 63.6388 64.4716 63.7169C64.2153 63.8628 63.3039 64.3933 63.0476 64.5392C62.8917 64.6487 62.7679 64.7978 62.689 64.9712C62.6101 65.1446 62.5791 65.3359 62.599 65.5254V119.698C62.6281 120.226 62.7812 120.739 63.0459 121.197C63.3107 121.655 63.6796 122.044 64.1227 122.332L83.9163 133.746C84.0691 133.856 84.2483 133.924 84.4359 133.943C84.6235 133.962 84.8127 133.93 84.9843 133.852C85.2406 133.703 86.1591 133.176 86.4083 133.023C86.565 132.915 86.6898 132.766 86.7699 132.594C86.8501 132.421 86.8825 132.23 86.864 132.04V77.8714C86.8347 77.3422 86.6807 76.8274 86.4147 76.369C86.1487 75.9106 85.7781 75.5215 85.3332 75.2335V75.2335Z" fill="white"/>
<path opacity="0.2" d="M85.4258 83.5496L86.8569 82.7237V77.7753L85.4222 78.6012L85.4258 83.5496Z" fill="#7A7B8A"/>
<path opacity="0.2" d="M113.977 67.0668L115.408 66.2445V61.2961L113.973 62.122L113.977 67.0668Z" fill="#7A7B8A"/>
<path d="M66.871 120.631L65.447 121.453V125.96C65.4542 126.092 65.4925 126.22 65.5587 126.335C65.6249 126.449 65.7171 126.546 65.8279 126.619L66.4937 127.003C66.6118 127.063 66.7422 127.094 66.8746 127.094C67.0069 127.094 67.1374 127.063 67.2555 127.003L67.9212 126.619C68.1568 126.466 68.3396 126.245 68.4445 125.985L69.7297 122.279L66.871 120.631Z" fill="white"/>
<path d="M65.4435 125.96C65.4507 126.092 65.4889 126.22 65.5551 126.335C65.6213 126.449 65.7136 126.546 65.8244 126.619L66.4901 127.003C66.5361 127.031 66.5878 127.048 66.6414 127.053C66.6949 127.058 66.7489 127.051 66.7992 127.032C66.8496 127.013 66.895 126.983 66.9321 126.944C66.9692 126.905 66.997 126.858 67.0134 126.807L68.2986 123.101L65.4506 121.453L65.4435 125.96Z" fill="#C9D1D6"/>
<path d="M81.1431 128.872L79.7191 129.694V134.201C79.7256 134.333 79.7632 134.461 79.8288 134.576C79.8943 134.69 79.9861 134.788 80.0964 134.86L80.7657 135.244C80.8832 135.304 81.0131 135.335 81.1449 135.335C81.2766 135.335 81.4065 135.304 81.524 135.244L82.1933 134.86C82.428 134.707 82.6105 134.486 82.7166 134.226L83.9982 130.52L81.1431 128.872Z" fill="white"/>
<path d="M79.7191 134.184C79.7256 134.315 79.7632 134.444 79.8288 134.558C79.8943 134.673 79.9861 134.77 80.0964 134.842L80.7657 135.227C80.8117 135.254 80.8634 135.272 80.9169 135.277C80.9705 135.282 81.0244 135.274 81.0748 135.255C81.1252 135.237 81.1706 135.207 81.2077 135.168C81.2448 135.129 81.2726 135.082 81.289 135.031L82.5706 131.325L79.7226 129.677L79.7191 134.184Z" fill="#C9D1D6"/>
<path d="M64.1085 64.6496L83.9056 76.0594C84.3484 76.3488 84.7167 76.7385 84.9808 77.1968C85.2449 77.6551 85.3973 78.1692 85.4258 78.6974V134.639C85.4258 134.639 84.3257 133.988 83.9056 133.746L64.112 122.332C63.6689 122.044 63.3 121.655 63.0353 121.197C62.7705 120.74 62.6174 120.226 62.5884 119.698V65.5254C62.5503 65.3354 62.5728 65.1382 62.6527 64.9617C62.7327 64.7852 62.866 64.6382 63.0339 64.5415C63.2018 64.4448 63.3958 64.4032 63.5886 64.4226C63.7814 64.442 63.9632 64.5214 64.1085 64.6496V64.6496Z" fill="#C9D1D6"/>
<path opacity="0.2" d="M83.9056 76.0594L64.1085 64.6496C63.9632 64.5214 63.7814 64.442 63.5886 64.4226C63.3958 64.4032 63.2018 64.4448 63.0339 64.5415C62.866 64.6382 62.7327 64.7852 62.6527 64.9617C62.5728 65.1382 62.5503 65.3354 62.5884 65.5254V70.3634L85.4258 83.5354V78.6974C85.3973 78.1692 85.2449 77.6551 84.9808 77.1968C84.7167 76.7385 84.3484 76.3488 83.9056 76.0594Z" fill="#7A7B8A"/>
<path d="M111.118 81.2072C111.084 81.2063 111.051 81.1921 111.026 81.1676C111.002 81.1431 110.987 81.1101 110.987 81.0754V64.8205L95.4828 73.7703C95.4682 73.7797 95.4519 73.786 95.4349 73.7888C95.4178 73.7916 95.4003 73.7908 95.3836 73.7864C95.3668 73.782 95.3512 73.7743 95.3376 73.7635C95.324 73.7528 95.3128 73.7393 95.3048 73.724C95.2958 73.7091 95.2898 73.6925 95.2873 73.6753C95.2848 73.6581 95.2857 73.6405 95.29 73.6236C95.2943 73.6067 95.3019 73.5908 95.3124 73.5769C95.3229 73.563 95.336 73.5513 95.351 73.5425L111.072 64.4787C111.092 64.4664 111.115 64.4599 111.138 64.4599C111.161 64.4599 111.184 64.4664 111.204 64.4787C111.223 64.4905 111.24 64.5072 111.251 64.5272C111.262 64.5472 111.268 64.5697 111.268 64.5927V81.0754C111.268 81.0943 111.264 81.1131 111.256 81.1303C111.249 81.1476 111.237 81.163 111.223 81.1755C111.209 81.188 111.192 81.1973 111.174 81.2027C111.156 81.2082 111.137 81.2097 111.118 81.2072V81.2072Z" fill="#FAFAFA"/>
<path d="M108.263 77.0847H108.224C108.19 77.077 108.161 77.0563 108.142 77.0269C108.123 76.9976 108.117 76.962 108.124 76.928L110.78 65.4257L105.511 74.55C105.503 74.5652 105.492 74.5786 105.478 74.5894C105.465 74.6002 105.45 74.6081 105.433 74.6128C105.416 74.6174 105.399 74.6187 105.382 74.6165C105.365 74.6142 105.348 74.6086 105.333 74.5998C105.318 74.5913 105.304 74.5798 105.294 74.566C105.283 74.5522 105.275 74.5364 105.27 74.5195C105.266 74.5026 105.264 74.4849 105.267 74.4675C105.269 74.4501 105.275 74.4334 105.283 74.4182L110.979 64.5286C110.996 64.5014 111.021 64.4808 111.051 64.4704C111.081 64.46 111.114 64.4604 111.143 64.4716C111.172 64.4835 111.196 64.5055 111.211 64.5336C111.225 64.5617 111.229 64.594 111.222 64.6247L108.374 76.9886C108.367 77.0139 108.353 77.0367 108.333 77.0539C108.314 77.0711 108.289 77.0818 108.263 77.0847V77.0847Z" fill="#FAFAFA"/>
<path d="M102.556 72.98C102.538 72.9801 102.52 72.9763 102.504 72.9689C102.487 72.9616 102.472 72.9508 102.46 72.9373C102.436 72.9126 102.422 72.8793 102.422 72.8447C102.422 72.81 102.436 72.7768 102.46 72.7521L111.026 64.5108C111.05 64.4864 111.084 64.4727 111.118 64.4727C111.153 64.4727 111.186 64.4864 111.211 64.5108C111.235 64.536 111.249 64.5699 111.249 64.6051C111.249 64.6403 111.235 64.6742 111.211 64.6994L102.645 72.9373C102.634 72.9499 102.621 72.9602 102.605 72.9675C102.59 72.9749 102.573 72.9791 102.556 72.98V72.98Z" fill="#FAFAFA"/>
<path d="M111.118 78.5763C111.084 78.5754 111.051 78.5613 111.026 78.5367C111.002 78.5122 110.987 78.4793 110.987 78.4446C110.987 76.2872 108.58 76.1413 108.477 76.1377C108.457 76.1363 108.438 76.1308 108.421 76.1216C108.404 76.1124 108.389 76.0997 108.377 76.0843C108.366 76.0692 108.358 76.0518 108.354 76.0333C108.351 76.0148 108.351 75.9958 108.356 75.9775C108.444 75.5368 108.414 75.0807 108.269 74.6551C108.125 74.2296 107.871 73.8495 107.533 73.5532C107.41 73.43 107.262 73.3345 107.098 73.2731C106.935 73.2117 106.76 73.1858 106.586 73.1972C106.494 73.2129 106.405 73.2484 106.327 73.3012C106.249 73.354 106.183 73.4229 106.134 73.5033C106.119 73.5293 106.096 73.5494 106.068 73.5604C106.041 73.5714 106.01 73.5726 105.981 73.5638C105.953 73.5551 105.928 73.5369 105.911 73.5124C105.894 73.4878 105.887 73.4582 105.889 73.4286C105.889 73.3467 106.035 71.4278 104.347 71.2392C104.325 71.2365 104.305 71.2286 104.287 71.2162C104.269 71.2038 104.254 71.1873 104.244 71.168C104.234 71.1493 104.229 71.1285 104.229 71.1074C104.229 71.0864 104.234 71.0656 104.244 71.0469C104.244 71.0469 104.992 69.6478 104.703 68.9608C104.67 68.8801 104.618 68.8084 104.552 68.7515C104.486 68.6946 104.407 68.6541 104.322 68.6332C104.305 68.6288 104.29 68.6209 104.276 68.6101C104.262 68.5993 104.251 68.5859 104.242 68.5705C104.234 68.5552 104.229 68.5383 104.227 68.521C104.226 68.5036 104.228 68.4861 104.233 68.4695C104.244 68.4365 104.267 68.4088 104.297 68.3923C104.328 68.3757 104.363 68.3715 104.397 68.3805C104.52 68.412 104.633 68.472 104.728 68.5554C104.824 68.6389 104.898 68.7436 104.945 68.8611C105.219 69.5126 104.757 70.5912 104.557 70.9971C105.867 71.2498 106.109 72.4852 106.145 73.0975C106.262 73.0143 106.396 72.9573 106.537 72.9302C106.751 72.9094 106.966 72.9374 107.168 73.012C107.37 73.0866 107.552 73.2059 107.701 73.3609C108.054 73.6729 108.325 74.0678 108.489 74.5102C108.652 74.9526 108.703 75.4287 108.637 75.8956C109.214 75.9704 111.25 76.3727 111.246 78.4517C111.245 78.4848 111.23 78.516 111.207 78.5391C111.183 78.5622 111.151 78.5755 111.118 78.5763V78.5763Z" fill="#FAFAFA"/>
<path d="M111.118 75.0234C111.085 75.0235 111.053 75.0111 111.029 74.9887C111.004 74.9663 110.989 74.9354 110.987 74.9024C110.93 74.1477 110.492 73.1722 109.94 72.9302C109.831 72.8813 109.709 72.8654 109.591 72.8844C109.473 72.9033 109.363 72.9564 109.274 73.037C109.252 73.0509 109.227 73.0583 109.201 73.0583C109.175 73.0583 109.15 73.0509 109.128 73.037C109.106 73.0245 109.087 73.0058 109.075 72.983C109.063 72.9602 109.058 72.9344 109.061 72.9088C109.061 72.9088 109.178 71.5738 108.576 71.022C108.446 70.913 108.291 70.8368 108.125 70.7996C107.959 70.7625 107.787 70.7655 107.622 70.8084C107.6 70.8132 107.576 70.8118 107.554 70.8043C107.532 70.7967 107.513 70.7834 107.498 70.7657C107.483 70.7478 107.472 70.7262 107.468 70.7031C107.463 70.68 107.465 70.6562 107.473 70.634C107.594 70.3029 107.829 69.3737 107.512 69.0426C107.362 68.8896 107.088 68.8753 106.693 69.0035C106.666 69.0124 106.637 69.0124 106.61 69.0034C106.583 68.9944 106.56 68.977 106.544 68.9536C106.527 68.9308 106.519 68.9034 106.519 68.8753C106.519 68.8472 106.527 68.8199 106.544 68.797C106.764 68.5193 107.309 67.7076 107.174 67.3196C107.151 67.266 107.115 67.2193 107.069 67.1843C107.023 67.1492 106.968 67.1271 106.91 67.1202C106.894 67.1161 106.878 67.1086 106.864 67.0983C106.85 67.088 106.838 67.075 106.829 67.0601C106.82 67.0452 106.814 67.0287 106.812 67.0116C106.809 66.9944 106.81 66.9769 106.814 66.96C106.818 66.9431 106.824 66.927 106.834 66.9128C106.844 66.8985 106.857 66.8865 106.871 66.8775C106.886 66.8685 106.903 66.8626 106.92 66.8602C106.937 66.8579 106.954 66.8592 106.971 66.8639C107.071 66.8785 107.165 66.919 107.245 66.9815C107.324 67.044 107.385 67.1262 107.423 67.2199C107.569 67.6436 107.213 68.2879 106.964 68.6439C107.092 68.6134 107.226 68.6146 107.354 68.6475C107.482 68.6804 107.599 68.7439 107.697 68.8326C108.089 69.2384 107.9 70.0964 107.783 70.4987C107.956 70.4779 108.132 70.4942 108.299 70.5463C108.466 70.5985 108.62 70.6854 108.751 70.8013C109.281 71.2854 109.338 72.2253 109.331 72.656C109.443 72.6037 109.564 72.5765 109.687 72.5765C109.81 72.5765 109.932 72.6037 110.043 72.656C110.716 72.9515 111.182 74.0017 111.25 74.8526C111.251 74.8697 111.249 74.8869 111.244 74.9033C111.239 74.9196 111.23 74.9347 111.219 74.9476C111.208 74.9606 111.194 74.9711 111.178 74.9786C111.163 74.9862 111.146 74.9905 111.129 74.9914L111.118 75.0234Z" fill="#FAFAFA"/>
<path d="M118.786 58.8254C118.77 58.6364 118.703 58.4553 118.592 58.3008C118.482 58.1462 118.333 58.0238 118.16 57.9461L96.9387 45.6926C96.4669 45.4539 95.9456 45.3295 95.4168 45.3295C94.8881 45.3295 94.3667 45.4539 93.8949 45.6926L61.2568 64.5392C61.0837 64.6169 60.9344 64.7393 60.8243 64.8939C60.7141 65.0484 60.6472 65.2295 60.6303 65.4186V67.0668C60.6472 67.2559 60.7141 67.437 60.8243 67.5915C60.9344 67.7461 61.0837 67.8685 61.2568 67.9462L82.478 80.1961C82.9493 80.4365 83.4708 80.5618 83.9999 80.5618C84.529 80.5618 85.0505 80.4365 85.5218 80.1961L118.16 61.353C118.333 61.2753 118.482 61.1529 118.592 60.9984C118.703 60.8438 118.77 60.6627 118.786 60.4737V58.8254Z" fill="#C9D1D6"/>
<path d="M82.4781 78.5478L61.2569 66.2979C60.4168 65.8102 60.4168 65.0234 61.2569 64.5392L93.895 45.6926C94.3668 45.4539 94.8881 45.3295 95.4169 45.3295C95.9456 45.3295 96.467 45.4539 96.9388 45.6926L118.16 57.9461C119.004 58.4338 119.004 59.217 118.16 59.7048L85.5219 78.5478C85.0506 78.7882 84.529 78.9135 84 78.9135C83.4709 78.9135 82.9494 78.7882 82.4781 78.5478V78.5478Z" fill="#F0F0F0"/>
<path opacity="0.1" d="M113.973 63.7667L103.984 76.1306L86.8569 86.0203L86.8533 79.4272L113.973 63.7667Z" fill="#7A7B8A"/>
<path opacity="0.1" d="M112.546 82.7202L103.984 94.2581L86.8569 104.151V97.5547L112.546 82.7202Z" fill="#7A7B8A"/>
<path opacity="0.1" d="M112.546 100.851L103.984 112.389L86.8569 122.282V115.686L112.546 100.851Z" fill="#7A7B8A"/>
<path d="M73.2577 136.861L46.9991 152.023L17.4298 134.91L43.6883 119.751L73.2577 136.861Z" fill="#CFD5E2"/>
<path opacity="0.5" d="M73.2577 136.861L46.9991 152.023L17.4298 134.91L43.6883 119.751L73.2577 136.861Z" fill="#7A7B8A"/>
<path d="M43.6883 99.1994V119.751L17.4298 134.91V114.361L43.6883 99.1994Z" fill="#CFD5E2"/>
<path opacity="0.23" d="M43.6883 99.1994V119.751L17.4298 134.91V114.361L43.6883 99.1994Z" fill="#7A7B8A"/>
<path d="M46.9991 131.471V152.023L17.4298 134.91V114.361L46.9991 131.471Z" fill="#CFD5E2"/>
<path opacity="0.38" d="M46.9991 131.471V152.023L17.4298 134.91V114.361L46.9991 131.471Z" fill="#7A7B8A"/>
<path d="M73.2577 116.309V136.861L43.6883 119.751V99.1994L73.2577 116.309Z" fill="#CFD5E2"/>
<path opacity="0.4" d="M73.2577 116.309V136.861L43.6883 119.751V99.1994L73.2577 116.309Z" fill="#7A7B8A"/>
<path d="M73.2577 136.861V116.309L46.9991 131.471V152.023L73.2577 136.861Z" fill="#CFD5E2"/>
<path opacity="0.23" d="M73.2577 136.861V116.309L46.9991 131.471V152.023L73.2577 136.861Z" fill="#7A7B8A"/>
<path d="M43.6883 99.1994L43.7239 87.8216L73.2221 104.952L73.2577 116.309L43.6883 99.1994Z" fill="#CFD5E2"/>
<path opacity="0.2" d="M43.6883 99.1994L43.7239 87.8216L73.2221 104.952L73.2577 116.309L43.6883 99.1994Z" fill="#7A7B8A"/>
<path d="M46.9991 131.471L49.4626 121.517L75.4827 106.494L73.2577 116.309L46.9991 131.471Z" fill="#CFD5E2"/>
<path opacity="0.3" d="M46.9991 131.471L49.4626 121.517L75.4827 106.494L73.2577 116.309L46.9991 131.471Z" fill="#7A7B8A"/>
<path d="M17.4298 114.361L14.297 104.037L40.5555 88.879L43.6883 99.1994L17.4298 114.361Z" fill="#CFD5E2"/>
<path opacity="0.1" d="M17.4298 114.361L14.297 104.037L40.5555 88.879L43.6883 99.1994L17.4298 114.361Z" fill="#7A7B8A"/>
<path d="M17.4298 114.361L11.2496 105.828L40.8225 122.937L46.9991 131.471L17.4298 114.361Z" fill="#CFD5E2"/>
<path opacity="0.45" d="M17.4298 114.361L11.2496 105.828L40.8225 122.937L46.9991 131.471L17.4298 114.361Z" fill="#7A7B8A"/>
<g opacity="0.7">
<path opacity="0.7" d="M54.7314 145.91C54.6886 145.91 54.6475 145.893 54.6169 145.863C54.5863 145.834 54.5686 145.793 54.5677 145.75V142.133C54.5686 142.09 54.5861 142.049 54.6167 142.018C54.6472 141.988 54.6883 141.97 54.7314 141.969C54.7743 141.97 54.815 141.988 54.8449 142.018C54.8749 142.049 54.8917 142.09 54.8916 142.133V145.75C54.8916 145.792 54.8748 145.833 54.8447 145.863C54.8147 145.893 54.7739 145.91 54.7314 145.91V145.91Z" fill="white"/>
<path opacity="0.7" d="M54.258 143.386C54.2367 143.389 54.2151 143.389 54.1939 143.386C54.155 143.368 54.1245 143.336 54.1086 143.296C54.0928 143.257 54.0927 143.212 54.1085 143.173L54.6852 141.845L55.326 142.585C55.3489 142.618 55.3588 142.659 55.3538 142.699C55.3488 142.739 55.3292 142.775 55.2988 142.802C55.2683 142.828 55.2292 142.843 55.1889 142.842C55.1486 142.841 55.11 142.826 55.0803 142.799L54.7777 142.443L54.4217 143.297C54.4063 143.327 54.3826 143.351 54.3534 143.367C54.3242 143.382 54.291 143.389 54.258 143.386V143.386Z" fill="white"/>
<path opacity="0.7" d="M56.2231 145.059C56.1803 145.058 56.1395 145.041 56.1096 145.01C56.0797 144.979 56.0629 144.938 56.0629 144.896V141.282C56.0629 141.24 56.0798 141.199 56.1098 141.169C56.1399 141.139 56.1806 141.122 56.2231 141.122C56.2656 141.122 56.3063 141.139 56.3364 141.169C56.3664 141.199 56.3833 141.24 56.3833 141.282V144.892C56.3838 144.913 56.38 144.935 56.3722 144.955C56.3644 144.975 56.3527 144.993 56.3379 145.009C56.323 145.024 56.3052 145.037 56.2855 145.045C56.2658 145.054 56.2446 145.059 56.2231 145.059V145.059Z" fill="white"/>
<path opacity="0.7" d="M55.7496 142.535C55.7284 142.539 55.7067 142.539 55.6855 142.535C55.666 142.527 55.6483 142.514 55.6336 142.499C55.6189 142.484 55.6073 142.466 55.5997 142.446C55.5921 142.426 55.5885 142.405 55.5892 142.383C55.5899 142.362 55.5948 142.341 55.6036 142.322L56.1768 140.976L56.8176 141.713C56.8472 141.743 56.8637 141.784 56.8637 141.827C56.8637 141.869 56.8472 141.91 56.8176 141.941C56.8027 141.956 56.785 141.968 56.7654 141.976C56.7459 141.984 56.7249 141.988 56.7037 141.988C56.6825 141.988 56.6615 141.984 56.642 141.976C56.6224 141.968 56.6047 141.956 56.5898 141.941L56.2872 141.585L55.9312 142.439C55.9164 142.473 55.8903 142.502 55.8573 142.519C55.8243 142.537 55.7863 142.542 55.7496 142.535Z" fill="white"/>
</g>
<g opacity="0.7">
<path opacity="0.7" d="M50.4274 148.363C50.3666 148.364 50.3065 148.349 50.253 148.32C50.1886 148.279 50.1365 148.221 50.102 148.153C50.0676 148.085 50.0521 148.009 50.0572 147.932V147.487C50.0581 147.444 50.0757 147.404 50.1064 147.374C50.137 147.344 50.1781 147.327 50.2209 147.327C50.2634 147.327 50.3042 147.344 50.3342 147.374C50.3642 147.404 50.3811 147.445 50.3811 147.487V147.932C50.3811 147.996 50.3811 148.032 50.4132 148.039C50.4452 148.046 50.463 148.039 50.5164 148.011C50.6166 147.918 50.6955 147.805 50.7478 147.679C50.8 147.553 50.8243 147.417 50.819 147.281V145.43C50.819 145.387 50.8359 145.346 50.8659 145.316C50.896 145.286 50.9367 145.269 50.9792 145.269C51.0217 145.269 51.0624 145.286 51.0925 145.316C51.1225 145.346 51.1394 145.387 51.1394 145.43V147.281C51.1474 147.473 51.1099 147.664 51.0301 147.839C50.9504 148.014 50.8305 148.168 50.6802 148.288C50.6041 148.335 50.5168 148.361 50.4274 148.363V148.363Z" fill="white"/>
<path opacity="0.7" d="M48.7293 146.871V146.594C48.7716 145.881 48.98 145.187 49.3379 144.569C49.6958 143.951 50.1932 143.425 50.7905 143.034C51.3744 142.699 51.9297 142.649 52.3569 142.898C52.5848 143.055 52.7664 143.269 52.8829 143.52C52.9994 143.77 53.0464 144.047 53.0191 144.322V144.415L48.7293 146.871ZM51.7588 143.048C51.4738 143.061 51.1968 143.147 50.9543 143.297C50.4425 143.634 50.0091 144.077 49.6835 144.596C49.358 145.115 49.1479 145.698 49.0675 146.305L52.688 144.212C52.7034 144.006 52.6654 143.799 52.5774 143.612C52.4895 143.425 52.3546 143.264 52.186 143.144C52.0545 143.075 51.9072 143.042 51.7588 143.048V143.048Z" fill="white"/>
</g>
<path opacity="0.7" d="M11.2496 105.828L40.8225 122.937L46.9991 131.471L40.495 123.24L11.2496 105.828Z" fill="white"/>
<path opacity="0.7" d="M73.2577 116.309L46.9991 131.471V152.023L47.4904 131.884L73.2577 116.309Z" fill="white"/>
<path d="M34.7242 108.089C37.4334 107.697 39.9076 105.953 41.4882 103.76C42.2254 102.735 42.7683 101.584 43.0902 100.364C43.4321 99.2222 43.4883 98.0144 43.254 96.8462C42.7663 94.8918 40.9578 93.7348 39.0461 93.4927C38.076 93.3651 37.0896 93.4613 36.1625 93.774C35.2012 94.1039 34.3671 94.7263 33.7773 95.554C33.4074 95.9949 33.1748 96.5345 33.108 97.1061C33.1023 97.33 33.1812 97.5478 33.3291 97.7161C33.4769 97.8843 33.6827 97.9907 33.9054 98.0139C34.4787 98.0622 35.0515 97.9168 35.5324 97.601C36.1187 97.2722 36.635 96.832 37.0525 96.3051C37.9479 95.2 38.618 93.9301 39.0247 92.5671C39.3101 91.3976 39.3101 90.1766 39.0247 89.0071C38.8079 87.7837 38.2487 86.6469 37.412 85.7284C36.4529 84.8561 35.2356 84.3199 33.9446 84.2011C32.6597 84.0246 31.3514 84.1464 30.1212 84.5571C29.5808 84.7209 29.0802 84.9949 28.6509 85.3617C28.3447 85.6465 27.9958 86.1164 28.1204 86.5792C28.245 87.042 28.9214 87.2485 29.3807 87.188C30.0604 87.0606 30.6829 86.7231 31.1607 86.2232C31.6931 85.6991 32.1453 85.0993 32.5028 84.4432C32.7684 83.9717 32.907 83.4393 32.9051 82.8982C32.8588 80.6411 30.3632 79.1815 28.4088 78.7686C27.8812 78.6583 27.3408 78.6224 26.8032 78.6618C26.6217 78.6618 26.732 78.9608 26.878 78.9501C27.9297 78.9023 28.9749 79.1384 29.904 79.6336C30.8206 80.0549 31.5905 80.7405 32.1148 81.6023C32.3484 82.0272 32.4638 82.507 32.4487 82.9917C32.4337 83.4764 32.2889 83.9481 32.0293 84.3578C31.6807 84.9649 31.2467 85.5188 30.7406 86.0025C30.317 86.387 29.6726 86.832 29.0781 86.7892C28.9799 86.789 28.8838 86.7612 28.8007 86.7089C28.7176 86.6567 28.6509 86.5821 28.6082 86.4938C28.5902 86.3769 28.5999 86.2574 28.6363 86.1449C28.6728 86.0324 28.7351 85.93 28.8182 85.8458C29.1326 85.5073 29.5214 85.2465 29.9538 85.084C31.0219 84.64 32.1783 84.4499 33.3323 84.5286C34.5215 84.5502 35.678 84.9216 36.6573 85.5966C37.5104 86.305 38.1163 87.2662 38.3875 88.3414C38.731 89.4337 38.8377 90.5866 38.7008 91.7234C38.4893 92.8673 38.0499 93.9569 37.4085 94.9274C36.7499 96.0168 35.924 97.0634 34.6851 97.4906C34.3789 97.601 33.7381 97.7612 33.6171 97.3162C33.496 96.8712 33.8449 96.3229 34.0692 95.9776C34.5652 95.1971 35.2882 94.5871 36.1411 94.2296C36.9642 93.8997 37.8526 93.7657 38.7364 93.838C40.4131 93.9626 42.1148 94.8384 42.6986 96.5045C42.9915 97.5002 43.0234 98.5545 42.7912 99.5661C42.5818 100.675 42.1832 101.739 41.6128 102.713C40.3861 104.782 38.5281 106.403 36.312 107.338C35.7851 107.565 35.244 107.758 34.6922 107.936C34.6352 107.957 34.6602 108.099 34.7242 108.089Z" fill="#E5E9F1"/>
<path d="M23.407 77.1808C21.983 77.0776 20.0214 78.199 20.7192 79.0178C21.4169 79.8366 23.2681 78.5122 23.2681 78.5122C23.2681 78.5122 23.0937 80.1677 23.6989 80.3563C24.3041 80.545 25.1229 78.9644 24.5177 77.9533C24.8096 78.0684 25.1258 78.1078 25.437 78.068C25.7482 78.0282 26.0442 77.9104 26.2977 77.7255C27.1592 77.0918 26.2479 76.4937 25.0339 76.6005C25.0339 76.6005 25.9025 73.7525 24.1475 74.2972C23.2681 74.5642 22.9584 75.593 23.407 77.1808Z" fill="#CFD5E2"/>
<path opacity="0.65" d="M23.407 77.1808C21.983 77.0776 20.0214 78.199 20.7192 79.0178C21.4169 79.8366 23.2681 78.5122 23.2681 78.5122C23.2681 78.5122 23.0937 80.1677 23.6989 80.3563C24.3041 80.545 25.1229 78.9644 24.5177 77.9533C24.8096 78.0684 25.1258 78.1078 25.437 78.068C25.7482 78.0282 26.0442 77.9104 26.2977 77.7255C27.1592 77.0918 26.2479 76.4937 25.0339 76.6005C25.0339 76.6005 25.9025 73.7525 24.1475 74.2972C23.2681 74.5642 22.9584 75.593 23.407 77.1808Z" fill="white"/>
<path d="M24.7313 77.786C24.6525 77.7089 24.5693 77.6363 24.4821 77.5688C24.3575 77.4727 24.2258 77.3802 24.1012 77.2876C23.9799 77.1994 23.8526 77.1197 23.7203 77.0491C23.6441 77.0068 23.5657 76.9688 23.4853 76.9352C23.3744 76.8831 23.251 76.8633 23.1293 76.8782C23.0974 76.8791 23.0664 76.8886 23.0394 76.9056C23.0124 76.9226 22.9905 76.9465 22.9759 76.9749C22.9614 77.0033 22.9547 77.0351 22.9567 77.0669C22.9586 77.0987 22.969 77.1295 22.9869 77.1559C23.0848 77.2619 23.2069 77.3425 23.3429 77.3908L23.5351 77.4941C23.6669 77.5724 23.7843 77.6614 23.8911 77.7504C23.9979 77.8394 24.1403 77.9248 24.2471 78.0138C24.4308 78.1628 24.6361 78.2828 24.8559 78.3698C24.8658 78.3751 24.8768 78.3779 24.888 78.3779C24.8991 78.3779 24.9101 78.3751 24.92 78.3698C25.1015 78.2274 24.8345 77.8892 24.7313 77.786Z" fill="#F0F0F0"/>
<path d="M138.228 38.0172C136.672 40.1105 134.589 51.62 133.803 55.3117C130.018 55.2014 124.956 55.0234 123.041 54.824C120.905 54.5997 116.344 54.1618 114.105 54.468C108.548 55.18 108.765 58.8326 108.9 59.7866C109.046 60.876 109.826 61.3744 112.816 60.6944C113.486 60.5474 114.168 60.4675 114.853 60.4559C115.141 60.4559 115.75 60.31 115.978 60.5556C116.334 60.9116 115.305 61.5097 115.049 61.6734C114.653 61.9298 114.24 62.2537 114.159 62.7165C114.135 62.8011 114.136 62.8907 114.162 62.9746C114.188 63.0586 114.237 63.1333 114.304 63.19C114.449 63.2492 114.612 63.2492 114.757 63.19C116.122 62.8661 117.438 62.3646 118.673 61.6984C119.138 61.4177 119.628 61.1795 120.136 60.9864C120.908 60.7372 121.706 60.8831 122.482 60.8831C124.151 60.8831 132.977 61.7589 136.9 62.1576C139.616 62.4317 139.904 59.751 140.841 57.0348C141.991 53.667 144.714 35.956 144.714 35.956C141.966 35.5573 140.079 35.5324 138.228 38.0172Z" fill="#FFF3F3"/>
<path d="M144.757 35.6783C143.443 35.4362 140.485 35.0696 138.876 36.8674C137.266 38.6652 136.886 40.552 136.177 43.2754C135.469 45.9988 134.212 50.876 134.212 50.876C134.212 50.876 136.287 53.8557 142.784 53.012L144.757 35.6783Z" fill="#C9D1D6"/>
<path d="M161.072 129.812L156.505 129.815L155.191 119.901L160.955 119.673L161.072 129.812Z" fill="#FFF3F3"/>
<path d="M145.907 124.86C145.131 126.209 142.635 126.099 140.567 125.622L140.328 115.874L146.433 115.632L145.907 124.86Z" fill="#FFF3F3"/>
<path d="M160.762 67.163C160.926 71.3816 160.367 96.3265 160.367 96.3265C160.52 97.5369 161.774 99.648 162.033 104.016C162.414 110.36 161.122 123.888 161.122 123.888C161.122 123.888 158.505 125.255 155.686 124.208C155.686 124.208 152.817 104.628 151.77 98.3699C150.866 92.9231 149.705 78.3129 149.705 78.3129L147.452 97.0385C147.865 99.255 148.036 101.51 147.961 103.763C147.868 106.675 146.209 120.816 146.209 120.816C144.317 121.435 142.284 121.483 140.364 120.955C140.364 120.955 139.004 99.0107 138.847 96.3514C138.669 93.3183 138.79 66.5435 138.79 66.5435L160.762 67.163Z" fill="#CFD5E2"/>
<path opacity="0.2" d="M149.712 78.32C149.712 78.32 145.721 77.1879 143.002 74.76C143.002 74.76 144.276 76.9352 147.886 78.8647L147.679 95.2086L149.712 78.32Z" fill="#7A7B8A"/>
<path d="M151.3 138.082C151.154 138.231 151.239 139.217 151.417 139.474C151.595 139.73 152.685 140.599 154.575 140.663C156.38 140.72 157.975 140.414 159.004 139.702C160.033 138.99 160.517 138.231 160.577 137.21C160.638 136.188 160.485 135.195 160.933 134.386C161.357 133.642 162.044 132.792 162.183 132.389C162.493 131.517 162.115 130.303 162.115 130.303L151.3 138.082Z" fill="#999999"/>
<path d="M155.857 128.943C155.859 129.332 155.804 129.72 155.693 130.093C155.307 131.307 154.726 132.45 153.974 133.479C153.454 134.144 152.799 134.703 152.247 135.348C151.657 135.959 151.294 136.754 151.222 137.601C151.2 139.025 152.752 139.435 153.938 139.598C155.223 139.768 156.53 139.646 157.761 139.242C158.41 139.047 158.989 138.668 159.427 138.151C159.865 137.635 160.145 137.002 160.232 136.33C160.282 135.935 160.232 135.536 160.275 135.141C160.395 134.234 160.739 133.37 161.275 132.628C161.585 132.198 161.85 131.738 162.065 131.254C162.397 130.364 162.065 129.392 161.795 128.534C161.563 127.79 161.3 126.946 161.04 127.028C161.04 127.423 161.04 127.459 160.787 127.74C160.431 128.096 160.449 128.591 160.075 128.9C160.183 128.572 160.257 128.233 160.296 127.889C160.314 127.749 160.28 127.607 160.2 127.491C160.071 127.386 159.92 127.313 159.759 127.277C159.196 127.111 158.617 127.002 158.032 126.953C157.475 126.88 156.91 126.898 156.359 127.007C156.196 127.044 156.05 127.136 155.946 127.266C155.854 127.412 155.808 127.582 155.814 127.754C155.814 127.986 155.853 128.566 155.857 128.943Z" fill="#F0F0F0"/>
<path d="M154.504 132.692C155.017 132.279 156.191 132.226 156.839 132.272C157.496 132.302 158.134 132.498 158.694 132.841C158.777 132.896 158.876 132.92 158.975 132.909C159.073 132.897 159.164 132.85 159.232 132.777V132.777C159.271 132.736 159.301 132.686 159.319 132.632C159.337 132.578 159.344 132.52 159.338 132.463C159.332 132.407 159.313 132.352 159.284 132.303C159.254 132.254 159.215 132.211 159.168 132.179C158.549 131.76 157.825 131.523 157.078 131.496C155.49 131.449 155.038 131.738 155.038 131.738C155.038 131.738 154.33 132.229 154.504 132.692Z" fill="#F5F5F5"/>
<path d="M153.351 134.187C153.995 133.771 155.294 133.774 155.939 133.831C156.584 133.872 157.208 134.082 157.747 134.44C157.829 134.495 157.928 134.518 158.026 134.507C158.124 134.495 158.214 134.448 158.281 134.376C158.321 134.335 158.352 134.285 158.371 134.231C158.39 134.177 158.397 134.12 158.391 134.063C158.385 134.006 158.367 133.95 158.337 133.901C158.308 133.852 158.268 133.81 158.221 133.778C157.592 133.336 156.852 133.08 156.085 133.037C154.493 132.987 154.095 133.326 154.095 133.326C153.914 133.404 153.753 133.522 153.624 133.671C153.495 133.82 153.402 133.997 153.351 134.187V134.187Z" fill="#F5F5F5"/>
<path d="M157.647 129.958C156.976 129.866 156.291 129.949 155.661 130.2C155.39 130.367 155.223 130.816 155.405 130.912C155.956 130.664 156.56 130.557 157.163 130.599C157.759 130.634 158.344 130.771 158.893 131.004C159.032 131.058 159.196 131.136 159.338 131.207C159.384 131.231 159.434 131.244 159.485 131.248C159.536 131.251 159.587 131.244 159.636 131.227C159.684 131.21 159.728 131.184 159.766 131.149C159.804 131.114 159.834 131.073 159.855 131.026V131.026C159.888 130.945 159.891 130.854 159.862 130.772C159.833 130.689 159.775 130.62 159.698 130.577C159.067 130.226 158.368 130.015 157.647 129.958V129.958Z" fill="#F5F5F5"/>
<path d="M130.129 130.94C129.967 131.347 129.967 131.801 130.129 132.208C130.285 132.589 132.172 133.771 134.792 133.721C136.741 133.673 138.641 133.105 140.296 132.076C141.325 131.464 142.368 131.389 143.664 131.364C144.96 131.339 146.69 130.787 147.003 130.196C147.316 129.605 147.039 128.548 147.039 128.548L130.129 130.94Z" fill="#999999"/>
<path d="M141.058 123.286L140.855 123.233C140.74 123.198 140.619 123.187 140.499 123.201C140.371 123.232 140.255 123.301 140.168 123.4C139.898 123.716 139.66 124.057 139.456 124.418C138.869 125.284 137.676 125.971 136.394 126.586C135.519 127.003 134.668 127.32 133.767 127.672C132.866 128.025 131.631 128.224 130.919 128.666C129.851 129.31 129.648 131.036 130.78 131.777C131.763 132.418 134.383 133.183 137.188 132.528C138.723 132.172 140.481 130.634 142.475 130.574C143.746 130.535 146.152 130.292 147.01 129.37C147.334 128.961 147.01 127.59 146.722 126.408C146.423 125.12 146.558 123.204 145.981 123.204L145.946 123.849C145.892 124.041 145.44 124.23 145.298 124.379L144.785 124.92C144.575 125.171 144.319 125.379 144.031 125.533C143.521 125.761 142.927 125.625 142.382 125.483C142.361 125.483 142.656 124.493 142.688 124.397C142.721 124.322 142.73 124.239 142.717 124.159C142.69 124.08 142.635 124.013 142.564 123.97C142.114 123.641 141.602 123.408 141.058 123.286V123.286Z" fill="#F0F0F0"/>
<path d="M137.612 125.953C137.711 125.783 137.852 125.641 138.02 125.54C138.189 125.439 138.38 125.381 138.577 125.373C139.157 125.294 140.15 125.764 140.759 126.316C140.816 126.368 140.86 126.433 140.887 126.505C140.913 126.578 140.922 126.656 140.911 126.732C140.9 126.809 140.871 126.882 140.826 126.944C140.781 127.007 140.721 127.058 140.652 127.092V127.092C140.565 127.135 140.467 127.15 140.371 127.135C140.276 127.119 140.187 127.075 140.118 127.007C139.451 126.343 138.552 125.965 137.612 125.953V125.953Z" fill="#F5F5F5"/>
<path d="M135.782 126.868C135.915 126.697 136.088 126.561 136.285 126.471C136.482 126.381 136.698 126.34 136.914 126.352C136.914 126.352 138.416 126.465 139.303 127.377C139.358 127.427 139.399 127.489 139.425 127.559C139.45 127.628 139.458 127.703 139.448 127.777C139.439 127.85 139.411 127.92 139.368 127.981C139.326 128.041 139.269 128.091 139.203 128.124V128.124C139.119 128.165 139.024 128.179 138.932 128.165C138.84 128.15 138.754 128.107 138.687 128.043C138.322 127.641 137.872 127.327 137.369 127.123C136.866 126.92 136.323 126.833 135.782 126.868V126.868Z" fill="#F5F5F5"/>
<path d="M133.771 127.672C133.922 127.516 134.105 127.394 134.308 127.314C134.511 127.235 134.728 127.201 134.945 127.213C135.796 127.307 136.596 127.667 137.231 128.242C137.286 128.292 137.327 128.355 137.353 128.425C137.378 128.495 137.386 128.57 137.376 128.643C137.367 128.717 137.339 128.787 137.297 128.848C137.254 128.909 137.197 128.959 137.131 128.993V128.993C137.047 129.035 136.952 129.049 136.859 129.033C136.767 129.018 136.681 128.974 136.615 128.908C136.269 128.495 135.833 128.168 135.339 127.954C134.845 127.739 134.308 127.643 133.771 127.672V127.672Z" fill="#F5F5F5"/>
<path d="M152.368 35.7567C154.048 35.9489 156.035 36.0521 157.64 36.2622C159.709 36.5327 161.321 38.6723 161.827 41.9831C162.382 45.6285 160.047 56.0807 160.047 56.0807L160.791 68.4054C157.761 70.6375 144.86 71.8088 138.431 67.1665C138.431 67.1665 138.58 46.191 139.082 42.9585C139.773 38.5263 140.862 35.7745 145.846 35.4576L152.368 35.7567Z" fill="#F0F0F0"/>
<path d="M163.856 62.4566C163.311 63.368 162.763 64.2793 162.201 65.18C161.994 65.5147 161.784 65.8457 161.567 66.1733C161.449 66.3336 161.312 66.4783 161.158 66.604C160.887 66.7891 160.325 66.6717 159.997 66.6823C158.388 66.7369 156.784 66.8556 155.184 67.0383C155.05 67.0342 154.917 67.0594 154.794 67.1123C154.671 67.1652 154.561 67.2445 154.472 67.3445C154.406 67.4824 154.393 67.6395 154.435 67.7863C154.477 67.9332 154.571 68.0596 154.7 68.1419C154.962 68.2992 155.259 68.3874 155.565 68.3983L156.953 68.562C157.151 68.5687 157.344 68.6303 157.509 68.74C158.014 69.1494 157.049 69.6407 156.761 69.8401C156.181 70.2429 155.562 70.5864 154.913 70.8653C152.019 72.0829 151.667 72.9657 152.201 73.9697C152.664 74.8419 154.664 78.0138 159.748 75.2833C161.795 74.1833 164.91 70.7087 166.33 69.0284C168.374 66.604 171.831 61.1964 171.831 61.1964C173.796 58.4979 174.048 57.3907 174.095 56.2693C174.141 55.1479 168.043 46.5221 165.971 43.4925C163.899 40.4629 162.913 36.7783 157.64 36.2728C157.64 36.2728 155.633 42.6381 158.958 46.757L166.636 57.4691C166.636 57.4691 164.604 61.2071 163.856 62.4566Z" fill="#FFF3F3"/>
<path d="M169.428 47.6008C168.441 46.1768 167.413 44.71 166.419 43.2576C162.236 37.1522 162.589 36.0343 156.558 35.9489C156.024 36.7677 155.707 40.2921 156.512 43.8307C157.185 46.8033 159.716 48.9002 159.716 48.9002L162.735 52.9906C162.735 52.9906 164.582 52.9336 166.797 51.3103C168.075 50.4145 169.005 49.1039 169.428 47.6008V47.6008Z" fill="#C9D1D6"/>
<path d="M156.345 19.7117C156.041 19.26 155.621 18.8989 155.129 18.667C154.637 18.435 154.091 18.3409 153.55 18.3945L153.237 26.0378L152.724 28.8609L152.813 32.0044C153.111 31.9623 153.393 31.8456 153.633 31.6651C153.873 31.4845 154.064 31.2461 154.187 30.972C154.657 30.0678 155.967 25.6961 155.967 25.6961C157.142 22.104 156.893 20.4807 156.345 19.7117Z" fill="#999999"/>
<path d="M152.881 26.0734C153.013 25.6089 153.267 25.1884 153.618 24.8559C154.055 24.386 155.8 23.8769 156.594 25.3579C157.388 26.8388 156.049 28.7933 155.017 29.3913C153.696 30.1603 152.92 29.1137 152.92 29.1137L152.952 36.1518C152.336 37.5758 149.556 38.8431 147.9 38.6438C146.583 38.4765 145.369 37.4405 146.547 35.9311L146.451 33.9232C146.451 33.9232 144.689 34.2792 143.817 34.1902C142.368 34.0407 141.403 32.9478 140.891 31.4099C140.065 28.9392 139.698 26.9314 140.047 21.9759C140.431 16.5469 146.708 16.1802 150.207 18.1453C153.707 20.1104 152.881 26.0734 152.881 26.0734Z" fill="#FFF3F3"/>
<path d="M138.05 16.3368C137.889 15.1514 138.299 13.8804 139.541 13.4604C139.997 13.2696 140.498 13.2115 140.985 13.2928C141.473 13.374 141.927 13.5913 142.297 13.9196C142.453 13.5014 142.722 13.1349 143.074 12.8613C143.427 12.5877 143.849 12.4179 144.293 12.3709C144.737 12.324 145.185 12.4017 145.587 12.5954C145.989 12.7891 146.329 13.0911 146.569 13.4675C146.899 12.9662 147.408 12.6107 147.993 12.4742C148.353 12.3938 148.726 12.3864 149.089 12.4524C149.452 12.5184 149.798 12.6566 150.107 12.8587C150.613 13.2325 151.207 13.9267 151.058 14.8274C152.058 14.4251 153.101 14.7598 153.845 15.6426C154.288 16.1833 154.539 16.8558 154.557 17.5544C154.583 17.9172 154.531 18.2814 154.404 18.6224C154.262 18.9463 153.97 19.1599 153.885 19.5266C153.76 19.8492 153.696 20.1919 153.696 20.5376C153.778 21.1357 153.909 21.7338 153.988 22.3176C154.072 22.8992 154.121 23.4853 154.134 24.0727C154.115 24.2109 154.067 24.3434 153.993 24.4614C153.918 24.5793 153.82 24.6799 153.703 24.7562C153.371 25.0469 153.113 25.4132 152.952 25.8242C152.827 26.0806 152.706 26.7142 152.461 26.8922C151.702 27.4227 151.617 25.7068 151.581 25.3757C151.532 24.6158 151.532 23.8536 151.581 23.0937C151.199 23.0888 150.822 23.0039 150.474 22.8445C150.126 22.6851 149.816 22.4547 149.563 22.1681C149.3 21.8461 149.127 21.4605 149.061 21.0503C149.02 20.8152 149.001 20.5769 149.004 20.3383C148.509 21.1571 147.359 21.4917 146.54 21.4063C145.166 21.2817 144.693 20.6943 144.472 20.2635C144.385 20.6881 144.198 21.0859 143.927 21.4241C143.576 21.7539 143.153 21.9977 142.692 22.1361C142.294 22.2423 141.875 22.2381 141.479 22.1239C141.083 22.0098 140.726 21.79 140.446 21.4882C139.887 22.2892 138.47 21.9332 138.156 21.7089C137.444 21.1927 137.213 20.5768 137.135 19.6975C137.056 18.8182 137.412 17.8142 138.388 17.4689C138.212 17.1134 138.098 16.7306 138.05 16.3368V16.3368Z" fill="#999999"/>
<path d="M146.451 33.9126C146.451 33.9126 149.634 33.108 150.723 32.453C151.368 32.0757 151.883 31.5122 152.201 30.8367C152.063 31.5031 151.793 32.135 151.407 32.695C150.638 33.788 146.487 34.7705 146.487 34.7705L146.451 33.9126Z" fill="#F7D0D0"/>
<path d="M146.629 25.8385C146.641 25.9733 146.693 26.1017 146.777 26.2076C146.861 26.3134 146.975 26.3922 147.104 26.434C147.233 26.4759 147.371 26.4789 147.501 26.4428C147.632 26.4068 147.749 26.3331 147.838 26.2311C147.927 26.1291 147.984 26.0031 148.002 25.8689C148.02 25.7348 147.998 25.5983 147.939 25.4764C147.88 25.3545 147.786 25.2527 147.67 25.1835C147.554 25.1143 147.42 25.0809 147.284 25.0873C147.099 25.1019 146.926 25.1888 146.803 25.3292C146.681 25.4696 146.618 25.6525 146.629 25.8385Z" fill="#999999"/>
<path d="M145.565 30.9898C145.581 31.1635 145.648 31.3285 145.757 31.4645C145.867 31.6004 146.014 31.7012 146.18 31.7544C146.346 31.8076 146.524 31.8107 146.692 31.7635C146.86 31.7163 147.01 31.6207 147.124 31.4888C147.238 31.3568 147.311 31.1942 147.334 31.0212C147.356 30.8482 147.327 30.6725 147.25 30.5158C147.174 30.359 147.053 30.2283 146.903 30.1398C146.752 30.0513 146.579 30.0089 146.405 30.0179C146.165 30.037 145.943 30.1497 145.786 30.3316C145.628 30.5135 145.549 30.7499 145.565 30.9898V30.9898Z" fill="#F7D0D0"/>
<path d="M147.202 23.4675L148.669 24.1795C148.761 23.9785 148.771 23.7501 148.699 23.5414C148.627 23.3327 148.477 23.1597 148.281 23.0581C148.184 23.0116 148.078 22.9853 147.97 22.9808C147.863 22.9763 147.755 22.9938 147.654 23.032C147.553 23.0703 147.461 23.1286 147.384 23.2035C147.306 23.2783 147.244 23.3682 147.202 23.4675V23.4675Z" fill="#999999"/>
<path d="M140.823 24.0834L142.072 23.0154C142.007 22.9302 141.925 22.8592 141.832 22.8069C141.738 22.7545 141.635 22.7218 141.528 22.7108C141.422 22.6998 141.314 22.7107 141.211 22.7429C141.109 22.7751 141.014 22.8278 140.933 22.8979C140.767 23.0438 140.662 23.2481 140.642 23.4687C140.621 23.6892 140.686 23.9093 140.823 24.0834V24.0834Z" fill="#999999"/>
<path d="M141.197 25.6996C141.205 25.8313 141.253 25.9575 141.333 26.0624C141.413 26.1672 141.522 26.2461 141.647 26.289C141.772 26.3319 141.907 26.3369 142.034 26.3035C142.162 26.27 142.277 26.1996 142.365 26.101C142.452 26.0024 142.509 25.8801 142.527 25.7494C142.546 25.6187 142.525 25.4855 142.468 25.3665C142.411 25.2476 142.32 25.1481 142.207 25.0807C142.093 25.0133 141.962 24.9809 141.83 24.9876C141.653 24.9995 141.486 25.0808 141.368 25.214C141.249 25.3472 141.188 25.5216 141.197 25.6996V25.6996Z" fill="#999999"/>
<path d="M144.5 24.9093L144.479 29.1208L142.25 28.48L144.5 24.9093Z" fill="#F7D0D0"/>
<path d="M138.908 30.8011C138.928 30.7966 138.948 30.7879 138.965 30.7757C138.982 30.7634 138.996 30.7479 139.007 30.7299C139.02 30.7123 139.029 30.6924 139.034 30.6712C139.038 30.6501 139.039 30.6282 139.035 30.6069C139.031 30.5856 139.022 30.5653 139.01 30.5473C138.998 30.5293 138.983 30.5139 138.965 30.5021L137.028 29.2134C137.01 29.2014 136.99 29.193 136.969 29.1889C136.947 29.1847 136.926 29.1848 136.904 29.1891C136.883 29.1934 136.863 29.2018 136.845 29.2139C136.827 29.2261 136.812 29.2416 136.8 29.2597C136.788 29.2775 136.779 29.2976 136.774 29.3189C136.77 29.3402 136.77 29.3622 136.774 29.3835C136.779 29.4048 136.787 29.4251 136.8 29.4429C136.812 29.4608 136.828 29.476 136.846 29.4875L138.779 30.7762C138.798 30.7896 138.819 30.7987 138.841 30.803C138.863 30.8073 138.886 30.8067 138.908 30.8011Z" fill="#E5E9F1"/>
<path d="M138.701 31.6342C138.731 31.6267 138.759 31.6111 138.781 31.5892C138.803 31.5672 138.818 31.5397 138.826 31.5096C138.835 31.4666 138.828 31.4216 138.804 31.3843C138.781 31.347 138.744 31.3204 138.701 31.3102L136.437 30.7869C136.416 30.7816 136.394 30.7805 136.373 30.7837C136.351 30.787 136.331 30.7944 136.312 30.8057C136.293 30.817 136.277 30.8318 136.265 30.8493C136.252 30.8669 136.243 30.8868 136.238 30.9079C136.228 30.9509 136.236 30.9959 136.259 31.0332C136.282 31.0705 136.319 31.0971 136.362 31.1073L138.626 31.6342C138.651 31.6377 138.676 31.6377 138.701 31.6342V31.6342Z" fill="#E5E9F1"/>
<path d="M136.597 33.14H136.619L138.801 32.3426C138.842 32.3275 138.875 32.2967 138.894 32.257C138.912 32.2172 138.914 32.1718 138.899 32.1308C138.884 32.0897 138.853 32.0563 138.813 32.038C138.773 32.0196 138.728 32.0178 138.687 32.0329L136.505 32.8303C136.484 32.8378 136.465 32.8493 136.449 32.8642C136.433 32.8791 136.421 32.897 136.412 32.9169C136.403 32.9368 136.398 32.9583 136.397 32.9801C136.397 33.0019 136.401 33.0236 136.409 33.0439C136.424 33.0797 136.451 33.109 136.485 33.1266C136.52 33.1442 136.559 33.149 136.597 33.14V33.14Z" fill="#E5E9F1"/>
<path d="M118.135 50.2174C118.18 50.3077 118.251 50.3828 118.338 50.4335C118.425 50.4842 118.525 50.5082 118.626 50.5025C118.727 50.4968 118.824 50.4617 118.905 50.4015C118.986 50.3414 119.047 50.2588 119.082 50.164L120.705 46.159C120.732 46.0948 120.745 46.0259 120.744 45.9565C120.743 45.8871 120.728 45.8186 120.7 45.7551C120.672 45.6916 120.632 45.6343 120.581 45.5868C120.531 45.5393 120.471 45.5024 120.406 45.4785C120.341 45.4545 120.271 45.444 120.202 45.4474C120.133 45.4509 120.065 45.4682 120.003 45.4985C119.94 45.5288 119.884 45.5714 119.839 45.6237C119.793 45.676 119.759 45.737 119.737 45.803L118.11 49.808C118.086 49.8743 118.076 49.9448 118.08 50.0152C118.084 50.0857 118.103 50.1544 118.135 50.2174Z" fill="#E5E9F1"/>
<path d="M115.461 50.196C115.513 50.3009 115.599 50.3852 115.705 50.4348C115.811 50.4845 115.931 50.4967 116.045 50.4694C116.159 50.4421 116.26 50.3769 116.332 50.2845C116.404 50.1921 116.442 50.0781 116.44 49.961L116.387 44.977C116.376 44.848 116.317 44.7277 116.222 44.64C116.127 44.5523 116.002 44.5037 115.873 44.5037C115.743 44.5037 115.618 44.5523 115.523 44.64C115.428 44.7277 115.369 44.848 115.358 44.977L115.408 49.961C115.407 50.0425 115.425 50.123 115.461 50.196V50.196Z" fill="#E5E9F1"/>
<path d="M110.93 47.4228L110.962 47.4833L113.414 51.0433C113.491 51.156 113.608 51.2342 113.741 51.2608C113.875 51.2875 114.013 51.2605 114.126 51.1857C114.237 51.108 114.313 50.9904 114.339 50.8577C114.365 50.7249 114.339 50.5873 114.265 50.4737L111.812 46.9137C111.741 46.8033 111.63 46.7245 111.502 46.6938C111.374 46.663 111.239 46.6826 111.125 46.7484C111.012 46.8142 110.927 46.9213 110.89 47.0475C110.853 47.1737 110.866 47.3093 110.926 47.4263L110.93 47.4228Z" fill="#E5E9F1"/>
</svg>
